<?xml version="1.0" encoding="utf-8" standalone="no"?>
<!DOCTYPE svg PUBLIC "-//W3C//DTD SVG 1.1//EN"
  "http://www.w3.org/Graphics/SVG/1.1/DTD/svg11.dtd">
<svg xmlns:xlink="http://www.w3.org/1999/xlink" width="460.8pt" height="345.6pt" viewBox="0 0 460.8 345.6" xmlns="http://www.w3.org/2000/svg" version="1.1">
 <metadata>
  <rdf:RDF xmlns:dc="http://purl.org/dc/elements/1.1/" xmlns:cc="http://creativecommons.org/ns#" xmlns:rdf="http://www.w3.org/1999/02/22-rdf-syntax-ns#">
   <cc:Work>
    <dc:type rdf:resource="http://purl.org/dc/dcmitype/StillImage"/>
    <dc:date>2022-12-25T23:50:32.671936</dc:date>
    <dc:format>image/svg+xml</dc:format>
    <dc:creator>
     <cc:Agent>
      <dc:title>Matplotlib v3.6.2, https://matplotlib.org/</dc:title>
     </cc:Agent>
    </dc:creator>
   </cc:Work>
  </rdf:RDF>
 </metadata>
 <defs>
  <style type="text/css">*{stroke-linejoin: round; stroke-linecap: butt}</style>
 </defs>
 <g id="figure_1">
  <g id="patch_1">
   <path d="M 0 345.6 
L 460.8 345.6 
L 460.8 0 
L 0 0 
z
" style="fill: #ffffff"/>
  </g>
  <g id="axes_1">
   <g id="patch_2">
    <path d="M 57.6 307.584 
L 414.72 307.584 
L 414.72 41.472 
L 57.6 41.472 
z
" style="fill: #ffffff"/>
   </g>
   <g id="matplotlib.axis_1">
    <g id="xtick_1">
     <g id="line2d_1">
      <path d="M 98.437017 307.584 
L 98.437017 41.472 
" clip-path="url(#p3cc713792c)" style="fill: none; stroke: #b0b0b0; stroke-width: 0.8; stroke-linecap: square"/>
     </g>
     <g id="line2d_2">
      <defs>
       <path id="m86a594cf69" d="M 0 0 
L 0 3.5 
" style="stroke: #000000; stroke-width: 0.8"/>
      </defs>
      <g>
       <use xlink:href="#m86a594cf69" x="98.437017" y="307.584" style="stroke: #000000; stroke-width: 0.8"/>
      </g>
     </g>
     <g id="text_1">
      <!-- −4 -->
      <g transform="translate(91.065923 322.182437) scale(0.1 -0.1)">
       <defs>
        <path id="DejaVuSans-2212" d="M 678 2272 
L 4684 2272 
L 4684 1741 
L 678 1741 
L 678 2272 
z
" transform="scale(0.015625)"/>
        <path id="DejaVuSans-34" d="M 2419 4116 
L 825 1625 
L 2419 1625 
L 2419 4116 
z
M 2253 4666 
L 3047 4666 
L 3047 1625 
L 3713 1625 
L 3713 1100 
L 3047 1100 
L 3047 0 
L 2419 0 
L 2419 1100 
L 313 1100 
L 313 1709 
L 2253 4666 
z
" transform="scale(0.015625)"/>
       </defs>
       <use xlink:href="#DejaVuSans-2212"/>
       <use xlink:href="#DejaVuSans-34" x="83.789062"/>
      </g>
     </g>
    </g>
    <g id="xtick_2">
     <g id="line2d_3">
      <path d="M 167.512452 307.584 
L 167.512452 41.472 
" clip-path="url(#p3cc713792c)" style="fill: none; stroke: #b0b0b0; stroke-width: 0.8; stroke-linecap: square"/>
     </g>
     <g id="line2d_4">
      <g>
       <use xlink:href="#m86a594cf69" x="167.512452" y="307.584" style="stroke: #000000; stroke-width: 0.8"/>
      </g>
     </g>
     <g id="text_2">
      <!-- −2 -->
      <g transform="translate(160.141358 322.182437) scale(0.1 -0.1)">
       <defs>
        <path id="DejaVuSans-32" d="M 1228 531 
L 3431 531 
L 3431 0 
L 469 0 
L 469 531 
Q 828 903 1448 1529 
Q 2069 2156 2228 2338 
Q 2531 2678 2651 2914 
Q 2772 3150 2772 3378 
Q 2772 3750 2511 3984 
Q 2250 4219 1831 4219 
Q 1534 4219 1204 4116 
Q 875 4013 500 3803 
L 500 4441 
Q 881 4594 1212 4672 
Q 1544 4750 1819 4750 
Q 2544 4750 2975 4387 
Q 3406 4025 3406 3419 
Q 3406 3131 3298 2873 
Q 3191 2616 2906 2266 
Q 2828 2175 2409 1742 
Q 1991 1309 1228 531 
z
" transform="scale(0.015625)"/>
       </defs>
       <use xlink:href="#DejaVuSans-2212"/>
       <use xlink:href="#DejaVuSans-32" x="83.789062"/>
      </g>
     </g>
    </g>
    <g id="xtick_3">
     <g id="line2d_5">
      <path d="M 236.587887 307.584 
L 236.587887 41.472 
" clip-path="url(#p3cc713792c)" style="fill: none; stroke: #b0b0b0; stroke-width: 0.8; stroke-linecap: square"/>
     </g>
     <g id="line2d_6">
      <g>
       <use xlink:href="#m86a594cf69" x="236.587887" y="307.584" style="stroke: #000000; stroke-width: 0.8"/>
      </g>
     </g>
     <g id="text_3">
      <!-- 0 -->
      <g transform="translate(233.406637 322.182437) scale(0.1 -0.1)">
       <defs>
        <path id="DejaVuSans-30" d="M 2034 4250 
Q 1547 4250 1301 3770 
Q 1056 3291 1056 2328 
Q 1056 1369 1301 889 
Q 1547 409 2034 409 
Q 2525 409 2770 889 
Q 3016 1369 3016 2328 
Q 3016 3291 2770 3770 
Q 2525 4250 2034 4250 
z
M 2034 4750 
Q 2819 4750 3233 4129 
Q 3647 3509 3647 2328 
Q 3647 1150 3233 529 
Q 2819 -91 2034 -91 
Q 1250 -91 836 529 
Q 422 1150 422 2328 
Q 422 3509 836 4129 
Q 1250 4750 2034 4750 
z
" transform="scale(0.015625)"/>
       </defs>
       <use xlink:href="#DejaVuSans-30"/>
      </g>
     </g>
    </g>
    <g id="xtick_4">
     <g id="line2d_7">
      <path d="M 305.663322 307.584 
L 305.663322 41.472 
" clip-path="url(#p3cc713792c)" style="fill: none; stroke: #b0b0b0; stroke-width: 0.8; stroke-linecap: square"/>
     </g>
     <g id="line2d_8">
      <g>
       <use xlink:href="#m86a594cf69" x="305.663322" y="307.584" style="stroke: #000000; stroke-width: 0.8"/>
      </g>
     </g>
     <g id="text_4">
      <!-- 2 -->
      <g transform="translate(302.482072 322.182437) scale(0.1 -0.1)">
       <use xlink:href="#DejaVuSans-32"/>
      </g>
     </g>
    </g>
    <g id="xtick_5">
     <g id="line2d_9">
      <path d="M 374.738758 307.584 
L 374.738758 41.472 
" clip-path="url(#p3cc713792c)" style="fill: none; stroke: #b0b0b0; stroke-width: 0.8; stroke-linecap: square"/>
     </g>
     <g id="line2d_10">
      <g>
       <use xlink:href="#m86a594cf69" x="374.738758" y="307.584" style="stroke: #000000; stroke-width: 0.8"/>
      </g>
     </g>
     <g id="text_5">
      <!-- 4 -->
      <g transform="translate(371.557508 322.182437) scale(0.1 -0.1)">
       <use xlink:href="#DejaVuSans-34"/>
      </g>
     </g>
    </g>
   </g>
   <g id="matplotlib.axis_2">
    <g id="ytick_1">
     <g id="line2d_11">
      <path d="M 57.6 286.034524 
L 414.72 286.034524 
" clip-path="url(#p3cc713792c)" style="fill: none; stroke: #b0b0b0; stroke-width: 0.8; stroke-linecap: square"/>
     </g>
     <g id="line2d_12">
      <defs>
       <path id="ma366a77be2" d="M 0 0 
L -3.5 0 
" style="stroke: #000000; stroke-width: 0.8"/>
      </defs>
      <g>
       <use xlink:href="#ma366a77be2" x="57.6" y="286.034524" style="stroke: #000000; stroke-width: 0.8"/>
      </g>
     </g>
     <g id="text_6">
      <!-- −100 -->
      <g transform="translate(23.132812 289.833742) scale(0.1 -0.1)">
       <defs>
        <path id="DejaVuSans-31" d="M 794 531 
L 1825 531 
L 1825 4091 
L 703 3866 
L 703 4441 
L 1819 4666 
L 2450 4666 
L 2450 531 
L 3481 531 
L 3481 0 
L 794 0 
L 794 531 
z
" transform="scale(0.015625)"/>
       </defs>
       <use xlink:href="#DejaVuSans-2212"/>
       <use xlink:href="#DejaVuSans-31" x="83.789062"/>
       <use xlink:href="#DejaVuSans-30" x="147.412109"/>
       <use xlink:href="#DejaVuSans-30" x="211.035156"/>
      </g>
     </g>
    </g>
    <g id="ytick_2">
     <g id="line2d_13">
      <path d="M 57.6 231.030509 
L 414.72 231.030509 
" clip-path="url(#p3cc713792c)" style="fill: none; stroke: #b0b0b0; stroke-width: 0.8; stroke-linecap: square"/>
     </g>
     <g id="line2d_14">
      <g>
       <use xlink:href="#ma366a77be2" x="57.6" y="231.030509" style="stroke: #000000; stroke-width: 0.8"/>
      </g>
     </g>
     <g id="text_7">
      <!-- −50 -->
      <g transform="translate(29.495313 234.829728) scale(0.1 -0.1)">
       <defs>
        <path id="DejaVuSans-35" d="M 691 4666 
L 3169 4666 
L 3169 4134 
L 1269 4134 
L 1269 2991 
Q 1406 3038 1543 3061 
Q 1681 3084 1819 3084 
Q 2600 3084 3056 2656 
Q 3513 2228 3513 1497 
Q 3513 744 3044 326 
Q 2575 -91 1722 -91 
Q 1428 -91 1123 -41 
Q 819 9 494 109 
L 494 744 
Q 775 591 1075 516 
Q 1375 441 1709 441 
Q 2250 441 2565 725 
Q 2881 1009 2881 1497 
Q 2881 1984 2565 2268 
Q 2250 2553 1709 2553 
Q 1456 2553 1204 2497 
Q 953 2441 691 2322 
L 691 4666 
z
" transform="scale(0.015625)"/>
       </defs>
       <use xlink:href="#DejaVuSans-2212"/>
       <use xlink:href="#DejaVuSans-35" x="83.789062"/>
       <use xlink:href="#DejaVuSans-30" x="147.412109"/>
      </g>
     </g>
    </g>
    <g id="ytick_3">
     <g id="line2d_15">
      <path d="M 57.6 176.026494 
L 414.72 176.026494 
" clip-path="url(#p3cc713792c)" style="fill: none; stroke: #b0b0b0; stroke-width: 0.8; stroke-linecap: square"/>
     </g>
     <g id="line2d_16">
      <g>
       <use xlink:href="#ma366a77be2" x="57.6" y="176.026494" style="stroke: #000000; stroke-width: 0.8"/>
      </g>
     </g>
     <g id="text_8">
      <!-- 0 -->
      <g transform="translate(44.2375 179.825713) scale(0.1 -0.1)">
       <use xlink:href="#DejaVuSans-30"/>
      </g>
     </g>
    </g>
    <g id="ytick_4">
     <g id="line2d_17">
      <path d="M 57.6 121.02248 
L 414.72 121.02248 
" clip-path="url(#p3cc713792c)" style="fill: none; stroke: #b0b0b0; stroke-width: 0.8; stroke-linecap: square"/>
     </g>
     <g id="line2d_18">
      <g>
       <use xlink:href="#ma366a77be2" x="57.6" y="121.02248" style="stroke: #000000; stroke-width: 0.8"/>
      </g>
     </g>
     <g id="text_9">
      <!-- 50 -->
      <g transform="translate(37.875 124.821698) scale(0.1 -0.1)">
       <use xlink:href="#DejaVuSans-35"/>
       <use xlink:href="#DejaVuSans-30" x="63.623047"/>
      </g>
     </g>
    </g>
    <g id="ytick_5">
     <g id="line2d_19">
      <path d="M 57.6 66.018465 
L 414.72 66.018465 
" clip-path="url(#p3cc713792c)" style="fill: none; stroke: #b0b0b0; stroke-width: 0.8; stroke-linecap: square"/>
     </g>
     <g id="line2d_20">
      <g>
       <use xlink:href="#ma366a77be2" x="57.6" y="66.018465" style="stroke: #000000; stroke-width: 0.8"/>
      </g>
     </g>
     <g id="text_10">
      <!-- 100 -->
      <g transform="translate(31.5125 69.817684) scale(0.1 -0.1)">
       <use xlink:href="#DejaVuSans-31"/>
       <use xlink:href="#DejaVuSans-30" x="63.623047"/>
       <use xlink:href="#DejaVuSans-30" x="127.246094"/>
      </g>
     </g>
    </g>
   </g>
   <g id="line2d_21">
    <path d="M 73.832727 176.016612 
L 77.286499 176.015573 
L 80.740271 176.014424 
L 84.194043 176.013155 
L 87.647814 176.011752 
L 91.101586 176.010201 
L 94.555358 176.008488 
L 98.00913 176.006594 
L 101.462901 176.004501 
L 104.916673 176.002188 
L 108.370445 175.999631 
L 111.824217 175.996806 
L 115.277988 175.993684 
L 118.73176 175.990233 
L 122.185532 175.98642 
L 125.639304 175.982205 
L 129.093075 175.977547 
L 132.546847 175.972399 
L 136.000619 175.96671 
L 139.454391 175.960422 
L 142.908162 175.953473 
L 146.361934 175.945794 
L 149.815706 175.937306 
L 153.269478 175.927926 
L 156.72325 175.91756 
L 160.177021 175.906103 
L 163.630793 175.893441 
L 167.084565 175.879448 
L 170.538337 175.863983 
L 173.992108 175.846891 
L 177.44588 175.828002 
L 180.899652 175.807127 
L 184.353424 175.784056 
L 187.807195 175.758558 
L 191.260967 175.730379 
L 194.714739 175.699236 
L 198.168511 175.664818 
L 201.622282 175.62678 
L 205.076054 175.584742 
L 208.529826 175.538283 
L 211.983598 175.486937 
L 215.437369 175.430191 
L 218.891141 175.367477 
L 222.344913 175.298168 
L 225.798685 175.221569 
L 229.252456 175.136914 
L 232.706228 175.043356 
L 236.16 174.939959 
L 239.613772 174.825687 
L 243.067544 174.699397 
L 246.521315 174.559825 
L 249.975087 174.405574 
L 253.428859 174.2351 
L 256.882631 174.046698 
L 260.336402 173.838481 
L 263.790174 173.608365 
L 267.243946 173.354048 
L 270.697718 173.072985 
L 274.151489 172.762361 
L 277.605261 172.41907 
L 281.059033 172.039673 
L 284.512805 171.620376 
L 287.966576 171.15698 
L 291.420348 170.644849 
L 294.87412 170.078856 
L 298.327892 169.453338 
L 301.781663 168.762033 
L 305.235435 167.998023 
L 308.689207 167.153661 
L 312.142979 166.220497 
L 315.59675 165.189191 
L 319.050522 164.049422 
L 322.504294 162.789782 
L 325.958066 161.397665 
L 329.411838 159.859138 
L 332.865609 158.158802 
L 336.319381 156.27964 
L 339.773153 154.202846 
L 343.226925 151.907632 
L 346.680696 149.37103 
L 350.134468 146.56765 
L 353.58824 143.469436 
L 357.042012 140.04538 
L 360.495783 136.261214 
L 363.949555 132.079062 
L 367.403327 127.457071 
L 370.857099 122.34898 
L 374.31087 116.703666 
L 377.764642 110.46463 
L 381.218414 103.569429 
L 384.672186 95.949052 
L 388.125957 87.527234 
L 391.579729 78.219686 
L 395.033501 67.933254 
L 398.487273 56.564989 
" clip-path="url(#p3cc713792c)" style="fill: none; stroke: #000000; stroke-width: 3; stroke-linecap: square"/>
   </g>
   <g id="line2d_22">
    <path d="M 73.832727 53.568 
L 77.286499 65.221467 
L 80.740271 75.765959 
L 84.194043 85.30701 
L 87.647814 93.940111 
L 91.101586 101.751663 
L 94.555358 108.819848 
L 98.00913 115.215406 
L 101.462901 121.002346 
L 104.916673 126.238586 
L 108.370445 130.976532 
L 111.824217 135.263603 
L 115.277988 139.142705 
L 118.73176 142.652661 
L 122.185532 145.828601 
L 125.639304 148.702311 
L 129.093075 151.302551 
L 132.546847 153.655345 
L 136.000619 155.784241 
L 139.454391 157.710546 
L 142.908162 159.453539 
L 146.361934 161.030665 
L 149.815706 162.457706 
L 153.269478 163.748947 
L 156.72325 164.91731 
L 160.177021 165.974489 
L 163.630793 166.931064 
L 167.084565 167.796608 
L 170.538337 168.579786 
L 173.992108 169.288434 
L 177.44588 169.929645 
L 180.899652 170.509837 
L 184.353424 171.034816 
L 187.807195 171.509837 
L 191.260967 171.939654 
L 194.714739 172.328568 
L 198.168511 172.680472 
L 201.622282 172.998889 
L 205.076054 173.287003 
L 208.529826 173.5477 
L 211.983598 173.783589 
L 215.437369 173.99703 
L 218.891141 174.190159 
L 222.344913 174.364909 
L 225.798685 174.52303 
L 229.252456 174.666103 
L 232.706228 174.795562 
L 236.16 174.9127 
L 239.613772 175.018692 
L 243.067544 175.114597 
L 246.521315 175.201376 
L 249.975087 175.279896 
L 253.428859 175.350944 
L 256.882631 175.415231 
L 260.336402 175.473401 
L 263.790174 175.526035 
L 267.243946 175.57366 
L 270.697718 175.616753 
L 274.151489 175.655745 
L 277.605261 175.691026 
L 281.059033 175.72295 
L 284.512805 175.751836 
L 287.966576 175.777973 
L 291.420348 175.801623 
L 294.87412 175.823023 
L 298.327892 175.842386 
L 301.781663 175.859906 
L 305.235435 175.875759 
L 308.689207 175.890103 
L 312.142979 175.903083 
L 315.59675 175.914827 
L 319.050522 175.925453 
L 322.504294 175.935069 
L 325.958066 175.943769 
L 329.411838 175.951641 
L 332.865609 175.958765 
L 336.319381 175.96521 
L 339.773153 175.971042 
L 343.226925 175.976319 
L 346.680696 175.981094 
L 350.134468 175.985414 
L 353.58824 175.989323 
L 357.042012 175.992861 
L 360.495783 175.996061 
L 363.949555 175.998957 
L 367.403327 176.001578 
L 370.857099 176.003949 
L 374.31087 176.006095 
L 377.764642 176.008036 
L 381.218414 176.009792 
L 384.672186 176.011382 
L 388.125957 176.01282 
L 391.579729 176.014121 
L 395.033501 176.015299 
L 398.487273 176.016364 
" clip-path="url(#p3cc713792c)" style="fill: none; stroke: #ff0000; stroke-width: 3; stroke-linecap: square"/>
   </g>
   <g id="line2d_23">
    <path d="M 73.832727 176.036377 
L 77.286499 176.037416 
L 80.740271 176.038565 
L 84.194043 176.039834 
L 87.647814 176.041237 
L 91.101586 176.042788 
L 94.555358 176.044501 
L 98.00913 176.046395 
L 101.462901 176.048488 
L 104.916673 176.050801 
L 108.370445 176.053357 
L 111.824217 176.056183 
L 115.277988 176.059305 
L 118.73176 176.062756 
L 122.185532 176.066569 
L 125.639304 176.070784 
L 129.093075 176.075442 
L 132.546847 176.08059 
L 136.000619 176.086279 
L 139.454391 176.092567 
L 142.908162 176.099516 
L 146.361934 176.107195 
L 149.815706 176.115683 
L 153.269478 176.125063 
L 156.72325 176.135429 
L 160.177021 176.146886 
L 163.630793 176.159548 
L 167.084565 176.173541 
L 170.538337 176.189006 
L 173.992108 176.206098 
L 177.44588 176.224987 
L 180.899652 176.245862 
L 184.353424 176.268933 
L 187.807195 176.294431 
L 191.260967 176.32261 
L 194.714739 176.353753 
L 198.168511 176.388171 
L 201.622282 176.426208 
L 205.076054 176.468247 
L 208.529826 176.514706 
L 211.983598 176.566052 
L 215.437369 176.622798 
L 218.891141 176.685511 
L 222.344913 176.754821 
L 225.798685 176.83142 
L 229.252456 176.916074 
L 232.706228 177.009632 
L 236.16 177.11303 
L 239.613772 177.227302 
L 243.067544 177.353592 
L 246.521315 177.493164 
L 249.975087 177.647415 
L 253.428859 177.817889 
L 256.882631 178.006291 
L 260.336402 178.214508 
L 263.790174 178.444624 
L 267.243946 178.69894 
L 270.697718 178.980004 
L 274.151489 179.290627 
L 277.605261 179.633919 
L 281.059033 180.013315 
L 284.512805 180.432613 
L 287.966576 180.896009 
L 291.420348 181.40814 
L 294.87412 181.974133 
L 298.327892 182.599651 
L 301.781663 183.290956 
L 305.235435 184.054966 
L 308.689207 184.899328 
L 312.142979 185.832492 
L 315.59675 186.863798 
L 319.050522 188.003567 
L 322.504294 189.263207 
L 325.958066 190.655324 
L 329.411838 192.193851 
L 332.865609 193.894187 
L 336.319381 195.773348 
L 339.773153 197.850143 
L 343.226925 200.145356 
L 346.680696 202.681959 
L 350.134468 205.485339 
L 353.58824 208.583553 
L 357.042012 212.007608 
L 360.495783 215.791775 
L 363.949555 219.973926 
L 367.403327 224.595918 
L 370.857099 229.704009 
L 374.31087 235.349322 
L 377.764642 241.588359 
L 381.218414 248.48356 
L 384.672186 256.103936 
L 388.125957 264.525754 
L 391.579729 273.833303 
L 395.033501 284.119735 
L 398.487273 295.488 
" clip-path="url(#p3cc713792c)" style="fill: none; stroke: #0000ff; stroke-width: 3; stroke-linecap: square"/>
   </g>
   <g id="line2d_24">
    <path d="M 236.587887 307.584 
L 236.587887 41.472 
" clip-path="url(#p3cc713792c)" style="fill: none; stroke: #000000; stroke-width: 1.5; stroke-linecap: square"/>
   </g>
   <g id="line2d_25">
    <path d="M 57.6 176.026494 
L 414.72 176.026494 
" clip-path="url(#p3cc713792c)" style="fill: none; stroke: #000000; stroke-width: 1.5; stroke-linecap: square"/>
   </g>
   <g id="patch_3">
    <path d="M 57.6 307.584 
L 57.6 41.472 
" style="fill: none; stroke: #000000; stroke-width: 0.8; stroke-linejoin: miter; stroke-linecap: square"/>
   </g>
   <g id="patch_4">
    <path d="M 414.72 307.584 
L 414.72 41.472 
" style="fill: none; stroke: #000000; stroke-width: 0.8; stroke-linejoin: miter; stroke-linecap: square"/>
   </g>
   <g id="patch_5">
    <path d="M 57.6 307.584 
L 414.72 307.584 
" style="fill: none; stroke: #000000; stroke-width: 0.8; stroke-linejoin: miter; stroke-linecap: square"/>
   </g>
   <g id="patch_6">
    <path d="M 57.6 41.472 
L 414.72 41.472 
" style="fill: none; stroke: #000000; stroke-width: 0.8; stroke-linejoin: miter; stroke-linecap: square"/>
   </g>
   <g id="text_11">
    <!-- Spiegeln -->
    <g transform="translate(210.212812 35.472) scale(0.12 -0.12)">
     <defs>
      <path id="DejaVuSans-53" d="M 3425 4513 
L 3425 3897 
Q 3066 4069 2747 4153 
Q 2428 4238 2131 4238 
Q 1616 4238 1336 4038 
Q 1056 3838 1056 3469 
Q 1056 3159 1242 3001 
Q 1428 2844 1947 2747 
L 2328 2669 
Q 3034 2534 3370 2195 
Q 3706 1856 3706 1288 
Q 3706 609 3251 259 
Q 2797 -91 1919 -91 
Q 1588 -91 1214 -16 
Q 841 59 441 206 
L 441 856 
Q 825 641 1194 531 
Q 1563 422 1919 422 
Q 2459 422 2753 634 
Q 3047 847 3047 1241 
Q 3047 1584 2836 1778 
Q 2625 1972 2144 2069 
L 1759 2144 
Q 1053 2284 737 2584 
Q 422 2884 422 3419 
Q 422 4038 858 4394 
Q 1294 4750 2059 4750 
Q 2388 4750 2728 4690 
Q 3069 4631 3425 4513 
z
" transform="scale(0.015625)"/>
      <path id="DejaVuSans-70" d="M 1159 525 
L 1159 -1331 
L 581 -1331 
L 581 3500 
L 1159 3500 
L 1159 2969 
Q 1341 3281 1617 3432 
Q 1894 3584 2278 3584 
Q 2916 3584 3314 3078 
Q 3713 2572 3713 1747 
Q 3713 922 3314 415 
Q 2916 -91 2278 -91 
Q 1894 -91 1617 61 
Q 1341 213 1159 525 
z
M 3116 1747 
Q 3116 2381 2855 2742 
Q 2594 3103 2138 3103 
Q 1681 3103 1420 2742 
Q 1159 2381 1159 1747 
Q 1159 1113 1420 752 
Q 1681 391 2138 391 
Q 2594 391 2855 752 
Q 3116 1113 3116 1747 
z
" transform="scale(0.015625)"/>
      <path id="DejaVuSans-69" d="M 603 3500 
L 1178 3500 
L 1178 0 
L 603 0 
L 603 3500 
z
M 603 4863 
L 1178 4863 
L 1178 4134 
L 603 4134 
L 603 4863 
z
" transform="scale(0.015625)"/>
      <path id="DejaVuSans-65" d="M 3597 1894 
L 3597 1613 
L 953 1613 
Q 991 1019 1311 708 
Q 1631 397 2203 397 
Q 2534 397 2845 478 
Q 3156 559 3463 722 
L 3463 178 
Q 3153 47 2828 -22 
Q 2503 -91 2169 -91 
Q 1331 -91 842 396 
Q 353 884 353 1716 
Q 353 2575 817 3079 
Q 1281 3584 2069 3584 
Q 2775 3584 3186 3129 
Q 3597 2675 3597 1894 
z
M 3022 2063 
Q 3016 2534 2758 2815 
Q 2500 3097 2075 3097 
Q 1594 3097 1305 2825 
Q 1016 2553 972 2059 
L 3022 2063 
z
" transform="scale(0.015625)"/>
      <path id="DejaVuSans-67" d="M 2906 1791 
Q 2906 2416 2648 2759 
Q 2391 3103 1925 3103 
Q 1463 3103 1205 2759 
Q 947 2416 947 1791 
Q 947 1169 1205 825 
Q 1463 481 1925 481 
Q 2391 481 2648 825 
Q 2906 1169 2906 1791 
z
M 3481 434 
Q 3481 -459 3084 -895 
Q 2688 -1331 1869 -1331 
Q 1566 -1331 1297 -1286 
Q 1028 -1241 775 -1147 
L 775 -588 
Q 1028 -725 1275 -790 
Q 1522 -856 1778 -856 
Q 2344 -856 2625 -561 
Q 2906 -266 2906 331 
L 2906 616 
Q 2728 306 2450 153 
Q 2172 0 1784 0 
Q 1141 0 747 490 
Q 353 981 353 1791 
Q 353 2603 747 3093 
Q 1141 3584 1784 3584 
Q 2172 3584 2450 3431 
Q 2728 3278 2906 2969 
L 2906 3500 
L 3481 3500 
L 3481 434 
z
" transform="scale(0.015625)"/>
      <path id="DejaVuSans-6c" d="M 603 4863 
L 1178 4863 
L 1178 0 
L 603 0 
L 603 4863 
z
" transform="scale(0.015625)"/>
      <path id="DejaVuSans-6e" d="M 3513 2113 
L 3513 0 
L 2938 0 
L 2938 2094 
Q 2938 2591 2744 2837 
Q 2550 3084 2163 3084 
Q 1697 3084 1428 2787 
Q 1159 2491 1159 1978 
L 1159 0 
L 581 0 
L 581 3500 
L 1159 3500 
L 1159 2956 
Q 1366 3272 1645 3428 
Q 1925 3584 2291 3584 
Q 2894 3584 3203 3211 
Q 3513 2838 3513 2113 
z
" transform="scale(0.015625)"/>
     </defs>
     <use xlink:href="#DejaVuSans-53"/>
     <use xlink:href="#DejaVuSans-70" x="63.476562"/>
     <use xlink:href="#DejaVuSans-69" x="126.953125"/>
     <use xlink:href="#DejaVuSans-65" x="154.736328"/>
     <use xlink:href="#DejaVuSans-67" x="216.259766"/>
     <use xlink:href="#DejaVuSans-65" x="279.736328"/>
     <use xlink:href="#DejaVuSans-6c" x="341.259766"/>
     <use xlink:href="#DejaVuSans-6e" x="369.042969"/>
    </g>
   </g>
   <g id="legend_1">
    <g id="patch_7">
     <path d="M 64.6 302.584 
L 120.082812 302.584 
Q 122.082812 302.584 122.082812 300.584 
L 122.082812 257.549625 
Q 122.082812 255.549625 120.082812 255.549625 
L 64.6 255.549625 
Q 62.6 255.549625 62.6 257.549625 
L 62.6 300.584 
Q 62.6 302.584 64.6 302.584 
z
" style="fill: #ffffff; opacity: 0.8; stroke: #cccccc; stroke-linejoin: miter"/>
    </g>
    <g id="line2d_26">
     <path d="M 66.6 263.648062 
L 76.6 263.648062 
L 86.6 263.648062 
" style="fill: none; stroke: #000000; stroke-width: 3; stroke-linecap: square"/>
    </g>
    <g id="text_12">
     <!-- e(x) -->
     <g transform="translate(94.6 267.148062) scale(0.1 -0.1)">
      <defs>
       <path id="DejaVuSans-28" d="M 1984 4856 
Q 1566 4138 1362 3434 
Q 1159 2731 1159 2009 
Q 1159 1288 1364 580 
Q 1569 -128 1984 -844 
L 1484 -844 
Q 1016 -109 783 600 
Q 550 1309 550 2009 
Q 550 2706 781 3412 
Q 1013 4119 1484 4856 
L 1984 4856 
z
" transform="scale(0.015625)"/>
       <path id="DejaVuSans-78" d="M 3513 3500 
L 2247 1797 
L 3578 0 
L 2900 0 
L 1881 1375 
L 863 0 
L 184 0 
L 1544 1831 
L 300 3500 
L 978 3500 
L 1906 2253 
L 2834 3500 
L 3513 3500 
z
" transform="scale(0.015625)"/>
       <path id="DejaVuSans-29" d="M 513 4856 
L 1013 4856 
Q 1481 4119 1714 3412 
Q 1947 2706 1947 2009 
Q 1947 1309 1714 600 
Q 1481 -109 1013 -844 
L 513 -844 
Q 928 -128 1133 580 
Q 1338 1288 1338 2009 
Q 1338 2731 1133 3434 
Q 928 4138 513 4856 
z
" transform="scale(0.015625)"/>
      </defs>
      <use xlink:href="#DejaVuSans-65"/>
      <use xlink:href="#DejaVuSans-28" x="61.523438"/>
      <use xlink:href="#DejaVuSans-78" x="100.537109"/>
      <use xlink:href="#DejaVuSans-29" x="159.716797"/>
     </g>
    </g>
    <g id="line2d_27">
     <path d="M 66.6 278.326188 
L 76.6 278.326188 
L 86.6 278.326188 
" style="fill: none; stroke: #ff0000; stroke-width: 3; stroke-linecap: square"/>
    </g>
    <g id="text_13">
     <!-- e(-x) -->
     <g transform="translate(94.6 281.826188) scale(0.1 -0.1)">
      <defs>
       <path id="DejaVuSans-2d" d="M 313 2009 
L 1997 2009 
L 1997 1497 
L 313 1497 
L 313 2009 
z
" transform="scale(0.015625)"/>
      </defs>
      <use xlink:href="#DejaVuSans-65"/>
      <use xlink:href="#DejaVuSans-28" x="61.523438"/>
      <use xlink:href="#DejaVuSans-2d" x="100.537109"/>
      <use xlink:href="#DejaVuSans-78" x="136.621094"/>
      <use xlink:href="#DejaVuSans-29" x="195.800781"/>
     </g>
    </g>
    <g id="line2d_28">
     <path d="M 66.6 293.004312 
L 76.6 293.004312 
L 86.6 293.004312 
" style="fill: none; stroke: #0000ff; stroke-width: 3; stroke-linecap: square"/>
    </g>
    <g id="text_14">
     <!-- -e(x) -->
     <g transform="translate(94.6 296.504312) scale(0.1 -0.1)">
      <use xlink:href="#DejaVuSans-2d"/>
      <use xlink:href="#DejaVuSans-65" x="36.083984"/>
      <use xlink:href="#DejaVuSans-28" x="97.607422"/>
      <use xlink:href="#DejaVuSans-78" x="136.621094"/>
      <use xlink:href="#DejaVuSans-29" x="195.800781"/>
     </g>
    </g>
   </g>
  </g>
 </g>
 <defs>
  <clipPath id="p3cc713792c">
   <rect x="57.6" y="41.472" width="357.12" height="266.112"/>
  </clipPath>
 </defs>
</svg>
