<?xml version="1.0" encoding="utf-8" standalone="no"?>
<!DOCTYPE svg PUBLIC "-//W3C//DTD SVG 1.1//EN"
  "http://www.w3.org/Graphics/SVG/1.1/DTD/svg11.dtd">
<svg xmlns:xlink="http://www.w3.org/1999/xlink" width="460.8pt" height="345.6pt" viewBox="0 0 460.8 345.6" xmlns="http://www.w3.org/2000/svg" version="1.1">
 <metadata>
  <rdf:RDF xmlns:dc="http://purl.org/dc/elements/1.1/" xmlns:cc="http://creativecommons.org/ns#" xmlns:rdf="http://www.w3.org/1999/02/22-rdf-syntax-ns#">
   <cc:Work>
    <dc:type rdf:resource="http://purl.org/dc/dcmitype/StillImage"/>
    <dc:date>2022-12-25T23:44:59.140715</dc:date>
    <dc:format>image/svg+xml</dc:format>
    <dc:creator>
     <cc:Agent>
      <dc:title>Matplotlib v3.6.2, https://matplotlib.org/</dc:title>
     </cc:Agent>
    </dc:creator>
   </cc:Work>
  </rdf:RDF>
 </metadata>
 <defs>
  <style type="text/css">*{stroke-linejoin: round; stroke-linecap: butt}</style>
 </defs>
 <g id="figure_1">
  <g id="patch_1">
   <path d="M 0 345.6 
L 460.8 345.6 
L 460.8 0 
L 0 0 
z
" style="fill: #ffffff"/>
  </g>
  <g id="axes_1">
   <g id="patch_2">
    <path d="M 57.6 307.584 
L 414.72 307.584 
L 414.72 41.472 
L 57.6 41.472 
z
" style="fill: #ffffff"/>
   </g>
   <g id="matplotlib.axis_1">
    <g id="xtick_1">
     <g id="line2d_1">
      <path d="M 81.187719 307.584 
L 81.187719 41.472 
" clip-path="url(#p72605b4d39)" style="fill: none; stroke: #b0b0b0; stroke-width: 0.8; stroke-linecap: square"/>
     </g>
     <g id="line2d_2">
      <defs>
       <path id="m7b4f3871ac" d="M 0 0 
L 0 3.5 
" style="stroke: #000000; stroke-width: 0.8"/>
      </defs>
      <g>
       <use xlink:href="#m7b4f3871ac" x="81.187719" y="307.584" style="stroke: #000000; stroke-width: 0.8"/>
      </g>
     </g>
     <g id="text_1">
      <!-- −6 -->
      <g transform="translate(73.816625 322.182437) scale(0.1 -0.1)">
       <defs>
        <path id="DejaVuSans-2212" d="M 678 2272 
L 4684 2272 
L 4684 1741 
L 678 1741 
L 678 2272 
z
" transform="scale(0.015625)"/>
        <path id="DejaVuSans-36" d="M 2113 2584 
Q 1688 2584 1439 2293 
Q 1191 2003 1191 1497 
Q 1191 994 1439 701 
Q 1688 409 2113 409 
Q 2538 409 2786 701 
Q 3034 994 3034 1497 
Q 3034 2003 2786 2293 
Q 2538 2584 2113 2584 
z
M 3366 4563 
L 3366 3988 
Q 3128 4100 2886 4159 
Q 2644 4219 2406 4219 
Q 1781 4219 1451 3797 
Q 1122 3375 1075 2522 
Q 1259 2794 1537 2939 
Q 1816 3084 2150 3084 
Q 2853 3084 3261 2657 
Q 3669 2231 3669 1497 
Q 3669 778 3244 343 
Q 2819 -91 2113 -91 
Q 1303 -91 875 529 
Q 447 1150 447 2328 
Q 447 3434 972 4092 
Q 1497 4750 2381 4750 
Q 2619 4750 2861 4703 
Q 3103 4656 3366 4563 
z
" transform="scale(0.015625)"/>
       </defs>
       <use xlink:href="#DejaVuSans-2212"/>
       <use xlink:href="#DejaVuSans-36" x="83.789062"/>
      </g>
     </g>
    </g>
    <g id="xtick_2">
     <g id="line2d_3">
      <path d="M 133.132446 307.584 
L 133.132446 41.472 
" clip-path="url(#p72605b4d39)" style="fill: none; stroke: #b0b0b0; stroke-width: 0.8; stroke-linecap: square"/>
     </g>
     <g id="line2d_4">
      <g>
       <use xlink:href="#m7b4f3871ac" x="133.132446" y="307.584" style="stroke: #000000; stroke-width: 0.8"/>
      </g>
     </g>
     <g id="text_2">
      <!-- −4 -->
      <g transform="translate(125.761353 322.182437) scale(0.1 -0.1)">
       <defs>
        <path id="DejaVuSans-34" d="M 2419 4116 
L 825 1625 
L 2419 1625 
L 2419 4116 
z
M 2253 4666 
L 3047 4666 
L 3047 1625 
L 3713 1625 
L 3713 1100 
L 3047 1100 
L 3047 0 
L 2419 0 
L 2419 1100 
L 313 1100 
L 313 1709 
L 2253 4666 
z
" transform="scale(0.015625)"/>
       </defs>
       <use xlink:href="#DejaVuSans-2212"/>
       <use xlink:href="#DejaVuSans-34" x="83.789062"/>
      </g>
     </g>
    </g>
    <g id="xtick_3">
     <g id="line2d_5">
      <path d="M 185.077174 307.584 
L 185.077174 41.472 
" clip-path="url(#p72605b4d39)" style="fill: none; stroke: #b0b0b0; stroke-width: 0.8; stroke-linecap: square"/>
     </g>
     <g id="line2d_6">
      <g>
       <use xlink:href="#m7b4f3871ac" x="185.077174" y="307.584" style="stroke: #000000; stroke-width: 0.8"/>
      </g>
     </g>
     <g id="text_3">
      <!-- −2 -->
      <g transform="translate(177.70608 322.182437) scale(0.1 -0.1)">
       <defs>
        <path id="DejaVuSans-32" d="M 1228 531 
L 3431 531 
L 3431 0 
L 469 0 
L 469 531 
Q 828 903 1448 1529 
Q 2069 2156 2228 2338 
Q 2531 2678 2651 2914 
Q 2772 3150 2772 3378 
Q 2772 3750 2511 3984 
Q 2250 4219 1831 4219 
Q 1534 4219 1204 4116 
Q 875 4013 500 3803 
L 500 4441 
Q 881 4594 1212 4672 
Q 1544 4750 1819 4750 
Q 2544 4750 2975 4387 
Q 3406 4025 3406 3419 
Q 3406 3131 3298 2873 
Q 3191 2616 2906 2266 
Q 2828 2175 2409 1742 
Q 1991 1309 1228 531 
z
" transform="scale(0.015625)"/>
       </defs>
       <use xlink:href="#DejaVuSans-2212"/>
       <use xlink:href="#DejaVuSans-32" x="83.789062"/>
      </g>
     </g>
    </g>
    <g id="xtick_4">
     <g id="line2d_7">
      <path d="M 237.021901 307.584 
L 237.021901 41.472 
" clip-path="url(#p72605b4d39)" style="fill: none; stroke: #b0b0b0; stroke-width: 0.8; stroke-linecap: square"/>
     </g>
     <g id="line2d_8">
      <g>
       <use xlink:href="#m7b4f3871ac" x="237.021901" y="307.584" style="stroke: #000000; stroke-width: 0.8"/>
      </g>
     </g>
     <g id="text_4">
      <!-- 0 -->
      <g transform="translate(233.840651 322.182437) scale(0.1 -0.1)">
       <defs>
        <path id="DejaVuSans-30" d="M 2034 4250 
Q 1547 4250 1301 3770 
Q 1056 3291 1056 2328 
Q 1056 1369 1301 889 
Q 1547 409 2034 409 
Q 2525 409 2770 889 
Q 3016 1369 3016 2328 
Q 3016 3291 2770 3770 
Q 2525 4250 2034 4250 
z
M 2034 4750 
Q 2819 4750 3233 4129 
Q 3647 3509 3647 2328 
Q 3647 1150 3233 529 
Q 2819 -91 2034 -91 
Q 1250 -91 836 529 
Q 422 1150 422 2328 
Q 422 3509 836 4129 
Q 1250 4750 2034 4750 
z
" transform="scale(0.015625)"/>
       </defs>
       <use xlink:href="#DejaVuSans-30"/>
      </g>
     </g>
    </g>
    <g id="xtick_5">
     <g id="line2d_9">
      <path d="M 288.966628 307.584 
L 288.966628 41.472 
" clip-path="url(#p72605b4d39)" style="fill: none; stroke: #b0b0b0; stroke-width: 0.8; stroke-linecap: square"/>
     </g>
     <g id="line2d_10">
      <g>
       <use xlink:href="#m7b4f3871ac" x="288.966628" y="307.584" style="stroke: #000000; stroke-width: 0.8"/>
      </g>
     </g>
     <g id="text_5">
      <!-- 2 -->
      <g transform="translate(285.785378 322.182437) scale(0.1 -0.1)">
       <use xlink:href="#DejaVuSans-32"/>
      </g>
     </g>
    </g>
    <g id="xtick_6">
     <g id="line2d_11">
      <path d="M 340.911355 307.584 
L 340.911355 41.472 
" clip-path="url(#p72605b4d39)" style="fill: none; stroke: #b0b0b0; stroke-width: 0.8; stroke-linecap: square"/>
     </g>
     <g id="line2d_12">
      <g>
       <use xlink:href="#m7b4f3871ac" x="340.911355" y="307.584" style="stroke: #000000; stroke-width: 0.8"/>
      </g>
     </g>
     <g id="text_6">
      <!-- 4 -->
      <g transform="translate(337.730105 322.182437) scale(0.1 -0.1)">
       <use xlink:href="#DejaVuSans-34"/>
      </g>
     </g>
    </g>
    <g id="xtick_7">
     <g id="line2d_13">
      <path d="M 392.856083 307.584 
L 392.856083 41.472 
" clip-path="url(#p72605b4d39)" style="fill: none; stroke: #b0b0b0; stroke-width: 0.8; stroke-linecap: square"/>
     </g>
     <g id="line2d_14">
      <g>
       <use xlink:href="#m7b4f3871ac" x="392.856083" y="307.584" style="stroke: #000000; stroke-width: 0.8"/>
      </g>
     </g>
     <g id="text_7">
      <!-- 6 -->
      <g transform="translate(389.674833 322.182437) scale(0.1 -0.1)">
       <use xlink:href="#DejaVuSans-36"/>
      </g>
     </g>
    </g>
   </g>
   <g id="matplotlib.axis_2">
    <g id="ytick_1">
     <g id="line2d_15">
      <path d="M 57.6 295.489185 
L 414.72 295.489185 
" clip-path="url(#p72605b4d39)" style="fill: none; stroke: #b0b0b0; stroke-width: 0.8; stroke-linecap: square"/>
     </g>
     <g id="line2d_16">
      <defs>
       <path id="m03a2cec3a3" d="M 0 0 
L -3.5 0 
" style="stroke: #000000; stroke-width: 0.8"/>
      </defs>
      <g>
       <use xlink:href="#m03a2cec3a3" x="57.6" y="295.489185" style="stroke: #000000; stroke-width: 0.8"/>
      </g>
     </g>
     <g id="text_8">
      <!-- −2.0 -->
      <g transform="translate(26.317187 299.288404) scale(0.1 -0.1)">
       <defs>
        <path id="DejaVuSans-2e" d="M 684 794 
L 1344 794 
L 1344 0 
L 684 0 
L 684 794 
z
" transform="scale(0.015625)"/>
       </defs>
       <use xlink:href="#DejaVuSans-2212"/>
       <use xlink:href="#DejaVuSans-32" x="83.789062"/>
       <use xlink:href="#DejaVuSans-2e" x="147.412109"/>
       <use xlink:href="#DejaVuSans-30" x="179.199219"/>
      </g>
     </g>
    </g>
    <g id="ytick_2">
     <g id="line2d_17">
      <path d="M 57.6 265.242588 
L 414.72 265.242588 
" clip-path="url(#p72605b4d39)" style="fill: none; stroke: #b0b0b0; stroke-width: 0.8; stroke-linecap: square"/>
     </g>
     <g id="line2d_18">
      <g>
       <use xlink:href="#m03a2cec3a3" x="57.6" y="265.242588" style="stroke: #000000; stroke-width: 0.8"/>
      </g>
     </g>
     <g id="text_9">
      <!-- −1.5 -->
      <g transform="translate(26.317187 269.041807) scale(0.1 -0.1)">
       <defs>
        <path id="DejaVuSans-31" d="M 794 531 
L 1825 531 
L 1825 4091 
L 703 3866 
L 703 4441 
L 1819 4666 
L 2450 4666 
L 2450 531 
L 3481 531 
L 3481 0 
L 794 0 
L 794 531 
z
" transform="scale(0.015625)"/>
        <path id="DejaVuSans-35" d="M 691 4666 
L 3169 4666 
L 3169 4134 
L 1269 4134 
L 1269 2991 
Q 1406 3038 1543 3061 
Q 1681 3084 1819 3084 
Q 2600 3084 3056 2656 
Q 3513 2228 3513 1497 
Q 3513 744 3044 326 
Q 2575 -91 1722 -91 
Q 1428 -91 1123 -41 
Q 819 9 494 109 
L 494 744 
Q 775 591 1075 516 
Q 1375 441 1709 441 
Q 2250 441 2565 725 
Q 2881 1009 2881 1497 
Q 2881 1984 2565 2268 
Q 2250 2553 1709 2553 
Q 1456 2553 1204 2497 
Q 953 2441 691 2322 
L 691 4666 
z
" transform="scale(0.015625)"/>
       </defs>
       <use xlink:href="#DejaVuSans-2212"/>
       <use xlink:href="#DejaVuSans-31" x="83.789062"/>
       <use xlink:href="#DejaVuSans-2e" x="147.412109"/>
       <use xlink:href="#DejaVuSans-35" x="179.199219"/>
      </g>
     </g>
    </g>
    <g id="ytick_3">
     <g id="line2d_19">
      <path d="M 57.6 234.995992 
L 414.72 234.995992 
" clip-path="url(#p72605b4d39)" style="fill: none; stroke: #b0b0b0; stroke-width: 0.8; stroke-linecap: square"/>
     </g>
     <g id="line2d_20">
      <g>
       <use xlink:href="#m03a2cec3a3" x="57.6" y="234.995992" style="stroke: #000000; stroke-width: 0.8"/>
      </g>
     </g>
     <g id="text_10">
      <!-- −1.0 -->
      <g transform="translate(26.317187 238.79521) scale(0.1 -0.1)">
       <use xlink:href="#DejaVuSans-2212"/>
       <use xlink:href="#DejaVuSans-31" x="83.789062"/>
       <use xlink:href="#DejaVuSans-2e" x="147.412109"/>
       <use xlink:href="#DejaVuSans-30" x="179.199219"/>
      </g>
     </g>
    </g>
    <g id="ytick_4">
     <g id="line2d_21">
      <path d="M 57.6 204.749395 
L 414.72 204.749395 
" clip-path="url(#p72605b4d39)" style="fill: none; stroke: #b0b0b0; stroke-width: 0.8; stroke-linecap: square"/>
     </g>
     <g id="line2d_22">
      <g>
       <use xlink:href="#m03a2cec3a3" x="57.6" y="204.749395" style="stroke: #000000; stroke-width: 0.8"/>
      </g>
     </g>
     <g id="text_11">
      <!-- −0.5 -->
      <g transform="translate(26.317187 208.548614) scale(0.1 -0.1)">
       <use xlink:href="#DejaVuSans-2212"/>
       <use xlink:href="#DejaVuSans-30" x="83.789062"/>
       <use xlink:href="#DejaVuSans-2e" x="147.412109"/>
       <use xlink:href="#DejaVuSans-35" x="179.199219"/>
      </g>
     </g>
    </g>
    <g id="ytick_5">
     <g id="line2d_23">
      <path d="M 57.6 174.502798 
L 414.72 174.502798 
" clip-path="url(#p72605b4d39)" style="fill: none; stroke: #b0b0b0; stroke-width: 0.8; stroke-linecap: square"/>
     </g>
     <g id="line2d_24">
      <g>
       <use xlink:href="#m03a2cec3a3" x="57.6" y="174.502798" style="stroke: #000000; stroke-width: 0.8"/>
      </g>
     </g>
     <g id="text_12">
      <!-- 0.0 -->
      <g transform="translate(34.696875 178.302017) scale(0.1 -0.1)">
       <use xlink:href="#DejaVuSans-30"/>
       <use xlink:href="#DejaVuSans-2e" x="63.623047"/>
       <use xlink:href="#DejaVuSans-30" x="95.410156"/>
      </g>
     </g>
    </g>
    <g id="ytick_6">
     <g id="line2d_25">
      <path d="M 57.6 144.256202 
L 414.72 144.256202 
" clip-path="url(#p72605b4d39)" style="fill: none; stroke: #b0b0b0; stroke-width: 0.8; stroke-linecap: square"/>
     </g>
     <g id="line2d_26">
      <g>
       <use xlink:href="#m03a2cec3a3" x="57.6" y="144.256202" style="stroke: #000000; stroke-width: 0.8"/>
      </g>
     </g>
     <g id="text_13">
      <!-- 0.5 -->
      <g transform="translate(34.696875 148.05542) scale(0.1 -0.1)">
       <use xlink:href="#DejaVuSans-30"/>
       <use xlink:href="#DejaVuSans-2e" x="63.623047"/>
       <use xlink:href="#DejaVuSans-35" x="95.410156"/>
      </g>
     </g>
    </g>
    <g id="ytick_7">
     <g id="line2d_27">
      <path d="M 57.6 114.009605 
L 414.72 114.009605 
" clip-path="url(#p72605b4d39)" style="fill: none; stroke: #b0b0b0; stroke-width: 0.8; stroke-linecap: square"/>
     </g>
     <g id="line2d_28">
      <g>
       <use xlink:href="#m03a2cec3a3" x="57.6" y="114.009605" style="stroke: #000000; stroke-width: 0.8"/>
      </g>
     </g>
     <g id="text_14">
      <!-- 1.0 -->
      <g transform="translate(34.696875 117.808824) scale(0.1 -0.1)">
       <use xlink:href="#DejaVuSans-31"/>
       <use xlink:href="#DejaVuSans-2e" x="63.623047"/>
       <use xlink:href="#DejaVuSans-30" x="95.410156"/>
      </g>
     </g>
    </g>
    <g id="ytick_8">
     <g id="line2d_29">
      <path d="M 57.6 83.763008 
L 414.72 83.763008 
" clip-path="url(#p72605b4d39)" style="fill: none; stroke: #b0b0b0; stroke-width: 0.8; stroke-linecap: square"/>
     </g>
     <g id="line2d_30">
      <g>
       <use xlink:href="#m03a2cec3a3" x="57.6" y="83.763008" style="stroke: #000000; stroke-width: 0.8"/>
      </g>
     </g>
     <g id="text_15">
      <!-- 1.5 -->
      <g transform="translate(34.696875 87.562227) scale(0.1 -0.1)">
       <use xlink:href="#DejaVuSans-31"/>
       <use xlink:href="#DejaVuSans-2e" x="63.623047"/>
       <use xlink:href="#DejaVuSans-35" x="95.410156"/>
      </g>
     </g>
    </g>
    <g id="ytick_9">
     <g id="line2d_31">
      <path d="M 57.6 53.516412 
L 414.72 53.516412 
" clip-path="url(#p72605b4d39)" style="fill: none; stroke: #b0b0b0; stroke-width: 0.8; stroke-linecap: square"/>
     </g>
     <g id="line2d_32">
      <g>
       <use xlink:href="#m03a2cec3a3" x="57.6" y="53.516412" style="stroke: #000000; stroke-width: 0.8"/>
      </g>
     </g>
     <g id="text_16">
      <!-- 2.0 -->
      <g transform="translate(34.696875 57.315631) scale(0.1 -0.1)">
       <use xlink:href="#DejaVuSans-32"/>
       <use xlink:href="#DejaVuSans-2e" x="63.623047"/>
       <use xlink:href="#DejaVuSans-30" x="95.410156"/>
      </g>
     </g>
    </g>
   </g>
   <g id="line2d_33">
    <path d="M 73.832727 174.502798 
L 76.429964 168.463556 
L 79.0272 162.484656 
L 81.624436 156.625837 
L 84.221673 150.945639 
L 86.818909 145.500817 
L 89.416145 140.345772 
L 92.013382 135.532013 
L 94.610618 131.107638 
L 97.207855 127.116852 
L 99.805091 123.599531 
L 102.402327 120.590819 
L 104.999564 118.120778 
L 107.5968 116.214087 
L 110.194036 114.889797 
L 112.791273 114.161141 
L 115.388509 114.035399 
L 117.985745 114.513827 
L 120.582982 115.591645 
L 123.180218 117.258084 
L 125.777455 119.496493 
L 128.374691 122.284507 
L 130.971927 125.594269 
L 133.569164 129.392709 
L 136.1664 133.641874 
L 138.763636 138.299307 
L 141.360873 143.318474 
L 143.958109 148.649225 
L 146.555345 154.238295 
L 149.152582 160.029842 
L 151.749818 165.965998 
L 154.347055 171.987451 
L 156.944291 178.034037 
L 159.541527 184.045339 
L 162.138764 189.961296 
L 164.736 195.722796 
L 167.333236 201.272273 
L 169.930473 206.554278 
L 172.527709 211.516036 
L 175.124945 216.10797 
L 177.722182 220.284198 
L 180.319418 224.002994 
L 182.916655 227.2272 
L 185.513891 229.924601 
L 188.111127 232.068247 
L 190.708364 233.636717 
L 193.3056 234.61434 
L 195.902836 234.991349 
L 198.500073 234.763977 
L 201.097309 233.934494 
L 203.694545 232.51119 
L 206.291782 230.508285 
L 208.889018 227.945792 
L 211.486255 224.849314 
L 214.083491 221.24979 
L 216.680727 217.183186 
L 219.277964 212.690133 
L 221.8752 207.815525 
L 224.472436 202.608068 
L 227.069673 197.119792 
L 229.666909 191.405534 
L 232.264145 185.52239 
L 234.861382 179.529142 
L 237.458618 173.485672 
L 240.055855 167.452365 
L 242.653091 161.489503 
L 245.250327 155.656666 
L 247.847564 150.012134 
L 250.4448 144.612304 
L 253.042036 139.51113 
L 255.639273 134.759581 
L 258.236509 130.405133 
L 260.833745 126.491295 
L 263.430982 123.057171 
L 266.028218 120.137076 
L 268.625455 117.760184 
L 271.222691 115.950247 
L 273.819927 114.725346 
L 276.417164 114.097723 
L 279.0144 114.073647 
L 281.611636 114.653359 
L 284.208873 115.831067 
L 286.806109 117.595003 
L 289.403345 119.927543 
L 292.000582 122.805381 
L 294.597818 126.199763 
L 297.195055 130.076773 
L 299.792291 134.397673 
L 302.389527 139.11929 
L 304.986764 144.194447 
L 307.584 149.572435 
L 310.181236 155.199519 
L 312.778473 161.019476 
L 315.375709 166.974153 
L 317.972945 173.004054 
L 320.570182 179.04893 
L 323.167418 185.048382 
L 325.764655 190.942466 
L 328.361891 196.672291 
L 330.959127 202.180606 
L 333.556364 207.412373 
L 336.1536 212.315318 
L 338.750836 216.840453 
L 341.348073 220.942564 
L 343.945309 224.580665 
L 346.542545 227.718404 
L 349.139782 230.32443 
L 351.737018 232.372705 
L 354.334255 233.842763 
L 356.931491 234.719916 
L 359.528727 234.995399 
L 362.125964 234.66646 
L 364.7232 233.736386 
L 367.320436 232.214469 
L 369.917673 230.115917 
L 372.514909 227.461696 
L 375.112145 224.278328 
L 377.709382 220.597619 
L 380.306618 216.456345 
L 382.903855 211.895886 
L 385.501091 206.961808 
L 388.098327 201.703409 
L 390.695564 196.173232 
L 393.2928 190.42653 
L 395.890036 184.520724 
L 398.487273 178.514822 
" clip-path="url(#p72605b4d39)" style="fill: none; stroke: #000000; stroke-width: 3; stroke-linecap: square"/>
   </g>
   <g id="line2d_34">
    <path d="M 73.832727 174.502798 
L 76.429964 171.483177 
L 79.0272 168.493727 
L 81.624436 165.564318 
L 84.221673 162.724219 
L 86.818909 160.001807 
L 89.416145 157.424285 
L 92.013382 155.017406 
L 94.610618 152.805218 
L 97.207855 150.809825 
L 99.805091 149.051165 
L 102.402327 147.546809 
L 104.999564 146.311788 
L 107.5968 145.358443 
L 110.194036 144.696298 
L 112.791273 144.33197 
L 115.388509 144.269099 
L 117.985745 144.508313 
L 120.582982 145.047222 
L 123.180218 145.880441 
L 125.777455 146.999646 
L 128.374691 148.393653 
L 130.971927 150.048534 
L 133.569164 151.947754 
L 136.1664 154.072336 
L 138.763636 156.401053 
L 141.360873 158.910636 
L 143.958109 161.576011 
L 146.555345 164.370547 
L 149.152582 167.26632 
L 151.749818 170.234398 
L 154.347055 173.245125 
L 156.944291 176.268417 
L 159.541527 179.274069 
L 162.138764 182.232047 
L 164.736 185.112797 
L 167.333236 187.887536 
L 169.930473 190.528538 
L 172.527709 193.009417 
L 175.124945 195.305384 
L 177.722182 197.393498 
L 180.319418 199.252896 
L 182.916655 200.864999 
L 185.513891 202.2137 
L 188.111127 203.285522 
L 190.708364 204.069757 
L 193.3056 204.558569 
L 195.902836 204.747074 
L 198.500073 204.633387 
L 201.097309 204.218646 
L 203.694545 203.506994 
L 206.291782 202.505542 
L 208.889018 201.224295 
L 211.486255 199.676056 
L 214.083491 197.876294 
L 216.680727 195.842992 
L 219.277964 193.596466 
L 221.8752 191.159162 
L 224.472436 188.555433 
L 227.069673 185.811295 
L 229.666909 182.954166 
L 232.264145 180.012594 
L 234.861382 177.01597 
L 237.458618 173.994235 
L 240.055855 170.977582 
L 242.653091 167.996151 
L 245.250327 165.079732 
L 247.847564 162.257466 
L 250.4448 159.557551 
L 253.042036 157.006964 
L 255.639273 154.63119 
L 258.236509 152.453966 
L 260.833745 150.497047 
L 263.430982 148.779985 
L 266.028218 147.319937 
L 268.625455 146.131491 
L 271.222691 145.226522 
L 273.819927 144.614072 
L 276.417164 144.300261 
L 279.0144 144.288222 
L 281.611636 144.578079 
L 284.208873 145.166932 
L 286.806109 146.048901 
L 289.403345 147.215171 
L 292.000582 148.65409 
L 294.597818 150.351281 
L 297.195055 152.289786 
L 299.792291 154.450235 
L 302.389527 156.811044 
L 304.986764 159.348623 
L 307.584 162.037617 
L 310.181236 164.851159 
L 312.778473 167.761137 
L 315.375709 170.738476 
L 317.972945 173.753426 
L 320.570182 176.775864 
L 323.167418 179.77559 
L 325.764655 182.722632 
L 328.361891 185.587545 
L 330.959127 188.341702 
L 333.556364 190.957585 
L 336.1536 193.409058 
L 338.750836 195.671626 
L 341.348073 197.722681 
L 343.945309 199.541732 
L 346.542545 201.110601 
L 349.139782 202.413614 
L 351.737018 203.437752 
L 354.334255 204.172781 
L 356.931491 204.611357 
L 359.528727 204.749099 
L 362.125964 204.584629 
L 364.7232 204.119592 
L 367.320436 203.358634 
L 369.917673 202.309357 
L 372.514909 200.982247 
L 375.112145 199.390563 
L 377.709382 197.550208 
L 380.306618 195.479572 
L 382.903855 193.199342 
L 385.501091 190.732303 
L 388.098327 188.103104 
L 390.695564 185.338015 
L 393.2928 182.464664 
L 395.890036 179.511761 
L 398.487273 176.50881 
" clip-path="url(#p72605b4d39)" style="fill: none; stroke: #ff0000; stroke-width: 3; stroke-linecap: square"/>
   </g>
   <g id="line2d_35">
    <path d="M 73.832727 174.502798 
L 76.429964 162.424314 
L 79.0272 150.466514 
L 81.624436 138.748876 
L 84.221673 127.38848 
L 86.818909 116.498835 
L 89.416145 106.188746 
L 92.013382 96.561228 
L 94.610618 87.712477 
L 97.207855 79.730906 
L 99.805091 72.696264 
L 102.402327 66.67884 
L 104.999564 61.738757 
L 107.5968 57.925375 
L 110.194036 55.276796 
L 112.791273 53.819484 
L 115.388509 53.568 
L 117.985745 54.524856 
L 120.582982 56.680492 
L 123.180218 60.01337 
L 125.777455 64.490188 
L 128.374691 70.066216 
L 130.971927 76.68574 
L 133.569164 84.282619 
L 136.1664 92.780949 
L 138.763636 102.095816 
L 141.360873 112.13415 
L 143.958109 122.795651 
L 146.555345 133.973792 
L 149.152582 145.556886 
L 151.749818 157.429198 
L 154.347055 169.472104 
L 156.944291 181.565275 
L 159.541527 193.58788 
L 162.138764 205.419793 
L 164.736 216.942794 
L 167.333236 228.041748 
L 169.930473 238.605758 
L 172.527709 248.529274 
L 175.124945 257.713141 
L 177.722182 266.065598 
L 180.319418 273.503189 
L 182.916655 279.951602 
L 185.513891 285.346404 
L 188.111127 289.633695 
L 190.708364 292.770635 
L 193.3056 294.725882 
L 195.902836 295.4799 
L 198.500073 295.025155 
L 201.097309 293.36619 
L 203.694545 290.519581 
L 206.291782 286.513771 
L 208.889018 281.388785 
L 211.486255 275.195829 
L 214.083491 267.996781 
L 216.680727 259.863573 
L 219.277964 250.877468 
L 221.8752 241.128252 
L 224.472436 230.713337 
L 227.069673 219.736785 
L 229.666909 208.30827 
L 232.264145 196.541981 
L 234.861382 184.555485 
L 237.458618 172.468545 
L 240.055855 160.401931 
L 242.653091 148.476208 
L 245.250327 136.810534 
L 247.847564 125.521469 
L 250.4448 114.721809 
L 253.042036 104.519461 
L 255.639273 95.016364 
L 258.236509 86.307468 
L 260.833745 78.479791 
L 263.430982 71.611545 
L 266.028218 65.771353 
L 268.625455 61.017571 
L 271.222691 57.397695 
L 273.819927 54.947894 
L 276.417164 53.692647 
L 279.0144 53.644495 
L 281.611636 54.803919 
L 284.208873 57.159335 
L 286.806109 60.687208 
L 289.403345 65.352288 
L 292.000582 71.107964 
L 294.597818 77.896728 
L 297.195055 85.650747 
L 299.792291 94.292547 
L 302.389527 103.735781 
L 304.986764 113.886095 
L 307.584 124.642072 
L 310.181236 135.896241 
L 312.778473 147.536153 
L 315.375709 159.445507 
L 317.972945 171.505309 
L 320.570182 183.595061 
L 323.167418 195.593966 
L 325.764655 207.382135 
L 328.361891 218.841784 
L 330.959127 229.858413 
L 333.556364 240.321947 
L 336.1536 250.127837 
L 338.750836 259.178108 
L 341.348073 267.38233 
L 343.945309 274.658532 
L 346.542545 280.93401 
L 349.139782 286.146062 
L 351.737018 290.242612 
L 354.334255 293.182728 
L 356.931491 294.937034 
L 359.528727 295.488 
L 362.125964 294.830122 
L 364.7232 292.969974 
L 367.320436 289.92614 
L 369.917673 285.729035 
L 372.514909 280.420594 
L 375.112145 274.053857 
L 377.709382 266.692439 
L 380.306618 258.409892 
L 382.903855 249.288974 
L 385.501091 239.420817 
L 388.098327 228.90402 
L 390.695564 217.843665 
L 393.2928 206.350262 
L 395.890036 194.538649 
L 398.487273 182.526845 
" clip-path="url(#p72605b4d39)" style="fill: none; stroke: #0000ff; stroke-width: 3; stroke-linecap: square"/>
   </g>
   <g id="line2d_36">
    <path d="M 237.021901 307.584 
L 237.021901 41.472 
" clip-path="url(#p72605b4d39)" style="fill: none; stroke: #000000; stroke-width: 1.5; stroke-linecap: square"/>
   </g>
   <g id="line2d_37">
    <path d="M 57.6 174.502798 
L 414.72 174.502798 
" clip-path="url(#p72605b4d39)" style="fill: none; stroke: #000000; stroke-width: 1.5; stroke-linecap: square"/>
   </g>
   <g id="patch_3">
    <path d="M 57.6 307.584 
L 57.6 41.472 
" style="fill: none; stroke: #000000; stroke-width: 0.8; stroke-linejoin: miter; stroke-linecap: square"/>
   </g>
   <g id="patch_4">
    <path d="M 414.72 307.584 
L 414.72 41.472 
" style="fill: none; stroke: #000000; stroke-width: 0.8; stroke-linejoin: miter; stroke-linecap: square"/>
   </g>
   <g id="patch_5">
    <path d="M 57.6 307.584 
L 414.72 307.584 
" style="fill: none; stroke: #000000; stroke-width: 0.8; stroke-linejoin: miter; stroke-linecap: square"/>
   </g>
   <g id="patch_6">
    <path d="M 57.6 41.472 
L 414.72 41.472 
" style="fill: none; stroke: #000000; stroke-width: 0.8; stroke-linejoin: miter; stroke-linecap: square"/>
   </g>
   <g id="text_17">
    <!-- Strecken und Stauchen in y-Richtung -->
    <g transform="translate(124.862813 35.472) scale(0.12 -0.12)">
     <defs>
      <path id="DejaVuSans-53" d="M 3425 4513 
L 3425 3897 
Q 3066 4069 2747 4153 
Q 2428 4238 2131 4238 
Q 1616 4238 1336 4038 
Q 1056 3838 1056 3469 
Q 1056 3159 1242 3001 
Q 1428 2844 1947 2747 
L 2328 2669 
Q 3034 2534 3370 2195 
Q 3706 1856 3706 1288 
Q 3706 609 3251 259 
Q 2797 -91 1919 -91 
Q 1588 -91 1214 -16 
Q 841 59 441 206 
L 441 856 
Q 825 641 1194 531 
Q 1563 422 1919 422 
Q 2459 422 2753 634 
Q 3047 847 3047 1241 
Q 3047 1584 2836 1778 
Q 2625 1972 2144 2069 
L 1759 2144 
Q 1053 2284 737 2584 
Q 422 2884 422 3419 
Q 422 4038 858 4394 
Q 1294 4750 2059 4750 
Q 2388 4750 2728 4690 
Q 3069 4631 3425 4513 
z
" transform="scale(0.015625)"/>
      <path id="DejaVuSans-74" d="M 1172 4494 
L 1172 3500 
L 2356 3500 
L 2356 3053 
L 1172 3053 
L 1172 1153 
Q 1172 725 1289 603 
Q 1406 481 1766 481 
L 2356 481 
L 2356 0 
L 1766 0 
Q 1100 0 847 248 
Q 594 497 594 1153 
L 594 3053 
L 172 3053 
L 172 3500 
L 594 3500 
L 594 4494 
L 1172 4494 
z
" transform="scale(0.015625)"/>
      <path id="DejaVuSans-72" d="M 2631 2963 
Q 2534 3019 2420 3045 
Q 2306 3072 2169 3072 
Q 1681 3072 1420 2755 
Q 1159 2438 1159 1844 
L 1159 0 
L 581 0 
L 581 3500 
L 1159 3500 
L 1159 2956 
Q 1341 3275 1631 3429 
Q 1922 3584 2338 3584 
Q 2397 3584 2469 3576 
Q 2541 3569 2628 3553 
L 2631 2963 
z
" transform="scale(0.015625)"/>
      <path id="DejaVuSans-65" d="M 3597 1894 
L 3597 1613 
L 953 1613 
Q 991 1019 1311 708 
Q 1631 397 2203 397 
Q 2534 397 2845 478 
Q 3156 559 3463 722 
L 3463 178 
Q 3153 47 2828 -22 
Q 2503 -91 2169 -91 
Q 1331 -91 842 396 
Q 353 884 353 1716 
Q 353 2575 817 3079 
Q 1281 3584 2069 3584 
Q 2775 3584 3186 3129 
Q 3597 2675 3597 1894 
z
M 3022 2063 
Q 3016 2534 2758 2815 
Q 2500 3097 2075 3097 
Q 1594 3097 1305 2825 
Q 1016 2553 972 2059 
L 3022 2063 
z
" transform="scale(0.015625)"/>
      <path id="DejaVuSans-63" d="M 3122 3366 
L 3122 2828 
Q 2878 2963 2633 3030 
Q 2388 3097 2138 3097 
Q 1578 3097 1268 2742 
Q 959 2388 959 1747 
Q 959 1106 1268 751 
Q 1578 397 2138 397 
Q 2388 397 2633 464 
Q 2878 531 3122 666 
L 3122 134 
Q 2881 22 2623 -34 
Q 2366 -91 2075 -91 
Q 1284 -91 818 406 
Q 353 903 353 1747 
Q 353 2603 823 3093 
Q 1294 3584 2113 3584 
Q 2378 3584 2631 3529 
Q 2884 3475 3122 3366 
z
" transform="scale(0.015625)"/>
      <path id="DejaVuSans-6b" d="M 581 4863 
L 1159 4863 
L 1159 1991 
L 2875 3500 
L 3609 3500 
L 1753 1863 
L 3688 0 
L 2938 0 
L 1159 1709 
L 1159 0 
L 581 0 
L 581 4863 
z
" transform="scale(0.015625)"/>
      <path id="DejaVuSans-6e" d="M 3513 2113 
L 3513 0 
L 2938 0 
L 2938 2094 
Q 2938 2591 2744 2837 
Q 2550 3084 2163 3084 
Q 1697 3084 1428 2787 
Q 1159 2491 1159 1978 
L 1159 0 
L 581 0 
L 581 3500 
L 1159 3500 
L 1159 2956 
Q 1366 3272 1645 3428 
Q 1925 3584 2291 3584 
Q 2894 3584 3203 3211 
Q 3513 2838 3513 2113 
z
" transform="scale(0.015625)"/>
      <path id="DejaVuSans-20" transform="scale(0.015625)"/>
      <path id="DejaVuSans-75" d="M 544 1381 
L 544 3500 
L 1119 3500 
L 1119 1403 
Q 1119 906 1312 657 
Q 1506 409 1894 409 
Q 2359 409 2629 706 
Q 2900 1003 2900 1516 
L 2900 3500 
L 3475 3500 
L 3475 0 
L 2900 0 
L 2900 538 
Q 2691 219 2414 64 
Q 2138 -91 1772 -91 
Q 1169 -91 856 284 
Q 544 659 544 1381 
z
M 1991 3584 
L 1991 3584 
z
" transform="scale(0.015625)"/>
      <path id="DejaVuSans-64" d="M 2906 2969 
L 2906 4863 
L 3481 4863 
L 3481 0 
L 2906 0 
L 2906 525 
Q 2725 213 2448 61 
Q 2172 -91 1784 -91 
Q 1150 -91 751 415 
Q 353 922 353 1747 
Q 353 2572 751 3078 
Q 1150 3584 1784 3584 
Q 2172 3584 2448 3432 
Q 2725 3281 2906 2969 
z
M 947 1747 
Q 947 1113 1208 752 
Q 1469 391 1925 391 
Q 2381 391 2643 752 
Q 2906 1113 2906 1747 
Q 2906 2381 2643 2742 
Q 2381 3103 1925 3103 
Q 1469 3103 1208 2742 
Q 947 2381 947 1747 
z
" transform="scale(0.015625)"/>
      <path id="DejaVuSans-61" d="M 2194 1759 
Q 1497 1759 1228 1600 
Q 959 1441 959 1056 
Q 959 750 1161 570 
Q 1363 391 1709 391 
Q 2188 391 2477 730 
Q 2766 1069 2766 1631 
L 2766 1759 
L 2194 1759 
z
M 3341 1997 
L 3341 0 
L 2766 0 
L 2766 531 
Q 2569 213 2275 61 
Q 1981 -91 1556 -91 
Q 1019 -91 701 211 
Q 384 513 384 1019 
Q 384 1609 779 1909 
Q 1175 2209 1959 2209 
L 2766 2209 
L 2766 2266 
Q 2766 2663 2505 2880 
Q 2244 3097 1772 3097 
Q 1472 3097 1187 3025 
Q 903 2953 641 2809 
L 641 3341 
Q 956 3463 1253 3523 
Q 1550 3584 1831 3584 
Q 2591 3584 2966 3190 
Q 3341 2797 3341 1997 
z
" transform="scale(0.015625)"/>
      <path id="DejaVuSans-68" d="M 3513 2113 
L 3513 0 
L 2938 0 
L 2938 2094 
Q 2938 2591 2744 2837 
Q 2550 3084 2163 3084 
Q 1697 3084 1428 2787 
Q 1159 2491 1159 1978 
L 1159 0 
L 581 0 
L 581 4863 
L 1159 4863 
L 1159 2956 
Q 1366 3272 1645 3428 
Q 1925 3584 2291 3584 
Q 2894 3584 3203 3211 
Q 3513 2838 3513 2113 
z
" transform="scale(0.015625)"/>
      <path id="DejaVuSans-69" d="M 603 3500 
L 1178 3500 
L 1178 0 
L 603 0 
L 603 3500 
z
M 603 4863 
L 1178 4863 
L 1178 4134 
L 603 4134 
L 603 4863 
z
" transform="scale(0.015625)"/>
      <path id="DejaVuSans-79" d="M 2059 -325 
Q 1816 -950 1584 -1140 
Q 1353 -1331 966 -1331 
L 506 -1331 
L 506 -850 
L 844 -850 
Q 1081 -850 1212 -737 
Q 1344 -625 1503 -206 
L 1606 56 
L 191 3500 
L 800 3500 
L 1894 763 
L 2988 3500 
L 3597 3500 
L 2059 -325 
z
" transform="scale(0.015625)"/>
      <path id="DejaVuSans-2d" d="M 313 2009 
L 1997 2009 
L 1997 1497 
L 313 1497 
L 313 2009 
z
" transform="scale(0.015625)"/>
      <path id="DejaVuSans-52" d="M 2841 2188 
Q 3044 2119 3236 1894 
Q 3428 1669 3622 1275 
L 4263 0 
L 3584 0 
L 2988 1197 
Q 2756 1666 2539 1819 
Q 2322 1972 1947 1972 
L 1259 1972 
L 1259 0 
L 628 0 
L 628 4666 
L 2053 4666 
Q 2853 4666 3247 4331 
Q 3641 3997 3641 3322 
Q 3641 2881 3436 2590 
Q 3231 2300 2841 2188 
z
M 1259 4147 
L 1259 2491 
L 2053 2491 
Q 2509 2491 2742 2702 
Q 2975 2913 2975 3322 
Q 2975 3731 2742 3939 
Q 2509 4147 2053 4147 
L 1259 4147 
z
" transform="scale(0.015625)"/>
      <path id="DejaVuSans-67" d="M 2906 1791 
Q 2906 2416 2648 2759 
Q 2391 3103 1925 3103 
Q 1463 3103 1205 2759 
Q 947 2416 947 1791 
Q 947 1169 1205 825 
Q 1463 481 1925 481 
Q 2391 481 2648 825 
Q 2906 1169 2906 1791 
z
M 3481 434 
Q 3481 -459 3084 -895 
Q 2688 -1331 1869 -1331 
Q 1566 -1331 1297 -1286 
Q 1028 -1241 775 -1147 
L 775 -588 
Q 1028 -725 1275 -790 
Q 1522 -856 1778 -856 
Q 2344 -856 2625 -561 
Q 2906 -266 2906 331 
L 2906 616 
Q 2728 306 2450 153 
Q 2172 0 1784 0 
Q 1141 0 747 490 
Q 353 981 353 1791 
Q 353 2603 747 3093 
Q 1141 3584 1784 3584 
Q 2172 3584 2450 3431 
Q 2728 3278 2906 2969 
L 2906 3500 
L 3481 3500 
L 3481 434 
z
" transform="scale(0.015625)"/>
     </defs>
     <use xlink:href="#DejaVuSans-53"/>
     <use xlink:href="#DejaVuSans-74" x="63.476562"/>
     <use xlink:href="#DejaVuSans-72" x="102.685547"/>
     <use xlink:href="#DejaVuSans-65" x="141.548828"/>
     <use xlink:href="#DejaVuSans-63" x="203.072266"/>
     <use xlink:href="#DejaVuSans-6b" x="258.052734"/>
     <use xlink:href="#DejaVuSans-65" x="312.337891"/>
     <use xlink:href="#DejaVuSans-6e" x="373.861328"/>
     <use xlink:href="#DejaVuSans-20" x="437.240234"/>
     <use xlink:href="#DejaVuSans-75" x="469.027344"/>
     <use xlink:href="#DejaVuSans-6e" x="532.40625"/>
     <use xlink:href="#DejaVuSans-64" x="595.785156"/>
     <use xlink:href="#DejaVuSans-20" x="659.261719"/>
     <use xlink:href="#DejaVuSans-53" x="691.048828"/>
     <use xlink:href="#DejaVuSans-74" x="754.525391"/>
     <use xlink:href="#DejaVuSans-61" x="793.734375"/>
     <use xlink:href="#DejaVuSans-75" x="855.013672"/>
     <use xlink:href="#DejaVuSans-63" x="918.392578"/>
     <use xlink:href="#DejaVuSans-68" x="973.373047"/>
     <use xlink:href="#DejaVuSans-65" x="1036.751953"/>
     <use xlink:href="#DejaVuSans-6e" x="1098.275391"/>
     <use xlink:href="#DejaVuSans-20" x="1161.654297"/>
     <use xlink:href="#DejaVuSans-69" x="1193.441406"/>
     <use xlink:href="#DejaVuSans-6e" x="1221.224609"/>
     <use xlink:href="#DejaVuSans-20" x="1284.603516"/>
     <use xlink:href="#DejaVuSans-79" x="1316.390625"/>
     <use xlink:href="#DejaVuSans-2d" x="1373.820312"/>
     <use xlink:href="#DejaVuSans-52" x="1409.904297"/>
     <use xlink:href="#DejaVuSans-69" x="1479.386719"/>
     <use xlink:href="#DejaVuSans-63" x="1507.169922"/>
     <use xlink:href="#DejaVuSans-68" x="1562.150391"/>
     <use xlink:href="#DejaVuSans-74" x="1625.529297"/>
     <use xlink:href="#DejaVuSans-75" x="1664.738281"/>
     <use xlink:href="#DejaVuSans-6e" x="1728.117188"/>
     <use xlink:href="#DejaVuSans-67" x="1791.496094"/>
    </g>
   </g>
   <g id="legend_1">
    <g id="patch_7">
     <path d="M 331.77 93.506375 
L 407.72 93.506375 
Q 409.72 93.506375 409.72 91.506375 
L 409.72 48.472 
Q 409.72 46.472 407.72 46.472 
L 331.77 46.472 
Q 329.77 46.472 329.77 48.472 
L 329.77 91.506375 
Q 329.77 93.506375 331.77 93.506375 
z
" style="fill: #ffffff; opacity: 0.8; stroke: #cccccc; stroke-linejoin: miter"/>
    </g>
    <g id="line2d_38">
     <path d="M 333.77 54.570438 
L 343.77 54.570438 
L 353.77 54.570438 
" style="fill: none; stroke: #000000; stroke-width: 3; stroke-linecap: square"/>
    </g>
    <g id="text_18">
     <!-- sin(x) -->
     <g transform="translate(361.77 58.070438) scale(0.1 -0.1)">
      <defs>
       <path id="DejaVuSans-73" d="M 2834 3397 
L 2834 2853 
Q 2591 2978 2328 3040 
Q 2066 3103 1784 3103 
Q 1356 3103 1142 2972 
Q 928 2841 928 2578 
Q 928 2378 1081 2264 
Q 1234 2150 1697 2047 
L 1894 2003 
Q 2506 1872 2764 1633 
Q 3022 1394 3022 966 
Q 3022 478 2636 193 
Q 2250 -91 1575 -91 
Q 1294 -91 989 -36 
Q 684 19 347 128 
L 347 722 
Q 666 556 975 473 
Q 1284 391 1588 391 
Q 1994 391 2212 530 
Q 2431 669 2431 922 
Q 2431 1156 2273 1281 
Q 2116 1406 1581 1522 
L 1381 1569 
Q 847 1681 609 1914 
Q 372 2147 372 2553 
Q 372 3047 722 3315 
Q 1072 3584 1716 3584 
Q 2034 3584 2315 3537 
Q 2597 3491 2834 3397 
z
" transform="scale(0.015625)"/>
       <path id="DejaVuSans-28" d="M 1984 4856 
Q 1566 4138 1362 3434 
Q 1159 2731 1159 2009 
Q 1159 1288 1364 580 
Q 1569 -128 1984 -844 
L 1484 -844 
Q 1016 -109 783 600 
Q 550 1309 550 2009 
Q 550 2706 781 3412 
Q 1013 4119 1484 4856 
L 1984 4856 
z
" transform="scale(0.015625)"/>
       <path id="DejaVuSans-78" d="M 3513 3500 
L 2247 1797 
L 3578 0 
L 2900 0 
L 1881 1375 
L 863 0 
L 184 0 
L 1544 1831 
L 300 3500 
L 978 3500 
L 1906 2253 
L 2834 3500 
L 3513 3500 
z
" transform="scale(0.015625)"/>
       <path id="DejaVuSans-29" d="M 513 4856 
L 1013 4856 
Q 1481 4119 1714 3412 
Q 1947 2706 1947 2009 
Q 1947 1309 1714 600 
Q 1481 -109 1013 -844 
L 513 -844 
Q 928 -128 1133 580 
Q 1338 1288 1338 2009 
Q 1338 2731 1133 3434 
Q 928 4138 513 4856 
z
" transform="scale(0.015625)"/>
      </defs>
      <use xlink:href="#DejaVuSans-73"/>
      <use xlink:href="#DejaVuSans-69" x="52.099609"/>
      <use xlink:href="#DejaVuSans-6e" x="79.882812"/>
      <use xlink:href="#DejaVuSans-28" x="143.261719"/>
      <use xlink:href="#DejaVuSans-78" x="182.275391"/>
      <use xlink:href="#DejaVuSans-29" x="241.455078"/>
     </g>
    </g>
    <g id="line2d_39">
     <path d="M 333.77 69.248563 
L 343.77 69.248563 
L 353.77 69.248563 
" style="fill: none; stroke: #ff0000; stroke-width: 3; stroke-linecap: square"/>
    </g>
    <g id="text_19">
     <!-- 0.5sin(x) -->
     <g transform="translate(361.77 72.748563) scale(0.1 -0.1)">
      <use xlink:href="#DejaVuSans-30"/>
      <use xlink:href="#DejaVuSans-2e" x="63.623047"/>
      <use xlink:href="#DejaVuSans-35" x="95.410156"/>
      <use xlink:href="#DejaVuSans-73" x="159.033203"/>
      <use xlink:href="#DejaVuSans-69" x="211.132812"/>
      <use xlink:href="#DejaVuSans-6e" x="238.916016"/>
      <use xlink:href="#DejaVuSans-28" x="302.294922"/>
      <use xlink:href="#DejaVuSans-78" x="341.308594"/>
      <use xlink:href="#DejaVuSans-29" x="400.488281"/>
     </g>
    </g>
    <g id="line2d_40">
     <path d="M 333.77 83.926688 
L 343.77 83.926688 
L 353.77 83.926688 
" style="fill: none; stroke: #0000ff; stroke-width: 3; stroke-linecap: square"/>
    </g>
    <g id="text_20">
     <!-- 2sin(x) -->
     <g transform="translate(361.77 87.426688) scale(0.1 -0.1)">
      <use xlink:href="#DejaVuSans-32"/>
      <use xlink:href="#DejaVuSans-73" x="63.623047"/>
      <use xlink:href="#DejaVuSans-69" x="115.722656"/>
      <use xlink:href="#DejaVuSans-6e" x="143.505859"/>
      <use xlink:href="#DejaVuSans-28" x="206.884766"/>
      <use xlink:href="#DejaVuSans-78" x="245.898438"/>
      <use xlink:href="#DejaVuSans-29" x="305.078125"/>
     </g>
    </g>
   </g>
  </g>
 </g>
 <defs>
  <clipPath id="p72605b4d39">
   <rect x="57.6" y="41.472" width="357.12" height="266.112"/>
  </clipPath>
 </defs>
</svg>
